<svg width="24" height="24" viewBox="0 0 24 24" fill="none" xmlns="http://www.w3.org/2000/svg">
<path d="M12 24C5.38286 24 0 18.6171 0 12C0 5.38286 5.38286 0 12 0C18.6171 0 24 5.38286 24 12C24 18.6171 18.6171 24 12 24ZM12 1.71429C6.32571 1.71429 1.71429 6.32571 1.71429 12C1.71429 17.6743 6.32571 22.2857 12 22.2857C17.6743 22.2857 22.2857 17.6743 22.2857 12C22.2857 6.32571 17.6743 1.71429 12 1.71429Z" fill="#202430"/>
<path d="M12.0001 9.85732C12.7102 9.85732 13.2858 9.28168 13.2858 8.5716C13.2858 7.86152 12.7102 7.28589 12.0001 7.28589C11.29 7.28589 10.7144 7.86152 10.7144 8.5716C10.7144 9.28168 11.29 9.85732 12.0001 9.85732Z" fill="#202430"/>
<path d="M12 18.8571C11.52 18.8571 11.1428 18.48 11.1428 18V12.8571C11.1428 12.3771 11.52 12 12 12C12.48 12 12.8571 12.3771 12.8571 12.8571V18C12.8571 18.48 12.48 18.8571 12 18.8571Z" fill="#202430"/>
</svg>
