<svg width="21" height="25" viewBox="0 0 21 25" fill="none" xmlns="http://www.w3.org/2000/svg">
<path d="M20.0455 0H3.81818C2.80554 0 1.83437 0.405218 1.11832 1.12651C0.402272 1.84781 0 2.82609 0 3.84615V24.0385C0 24.2935 0.100568 24.538 0.27958 24.7184C0.458592 24.8987 0.701384 25 0.954545 25H18.1364C18.3895 25 18.6323 24.8987 18.8113 24.7184C18.9903 24.538 19.0909 24.2935 19.0909 24.0385C19.0909 23.7834 18.9903 23.5389 18.8113 23.3585C18.6323 23.1782 18.3895 23.0769 18.1364 23.0769H1.90909C1.90909 22.5669 2.11023 22.0777 2.46825 21.7171C2.82627 21.3565 3.31186 21.1538 3.81818 21.1538H20.0455C20.2986 21.1538 20.5414 21.0525 20.7204 20.8722C20.8994 20.6919 21 20.4473 21 20.1923V0.961538C21 0.706523 20.8994 0.461951 20.7204 0.281628C20.5414 0.101305 20.2986 0 20.0455 0ZM19.0909 19.2308H3.81818C3.14779 19.2298 2.4891 19.4077 1.90909 19.7464V3.84615C1.90909 3.33612 2.11023 2.84698 2.46825 2.48633C2.82627 2.12569 3.31186 1.92308 3.81818 1.92308H19.0909V19.2308Z" fill="#202430"/>
</svg>
