<svg width="26" height="27" viewBox="0 0 26 27" fill="none" xmlns="http://www.w3.org/2000/svg">
<path d="M1 22.875C1 21.2174 1.63214 19.6277 2.75736 18.4556C3.88258 17.2835 5.4087 16.625 7 16.625H19C20.5913 16.625 22.1174 17.2835 23.2426 18.4556C24.3679 19.6277 25 21.2174 25 22.875C25 23.7038 24.6839 24.4987 24.1213 25.0847C23.5587 25.6708 22.7957 26 22 26H4C3.20435 26 2.44129 25.6708 1.87868 25.0847C1.31607 24.4987 1 23.7038 1 22.875Z" stroke="#202430" stroke-width="2" stroke-linejoin="round"/>
<path d="M13 13.069C16.3137 13.069 19 10.3672 19 7.03448C19 3.70173 16.3137 1 13 1C9.68629 1 7 3.70173 7 7.03448C7 10.3672 9.68629 13.069 13 13.069Z" stroke="#202430" stroke-width="2"/>
</svg>
